<svg id="Group_111" data-name="Group 111" xmlns="http://www.w3.org/2000/svg" xmlns:xlink="http://www.w3.org/1999/xlink" width="88.254" height="64.065" viewBox="0 0 88.254 64.065">
  <defs>
    <clipPath id="clip-path">
      <rect id="Rectangle_235" data-name="Rectangle 235" width="88.254" height="64.065" fill="#222423"/>
    </clipPath>
  </defs>
  <g id="Group_108" data-name="Group 108" clip-path="url(#clip-path)">
    <path id="Path_105" data-name="Path 105" d="M.595,0h19.7c12.693,0,19.37,5.289,19.37,15.734C39.665,25.518,32.723,32,20.1,32H14.742l.132,13.684a.593.593,0,0,1-.595.595H.595A.592.592,0,0,1,0,45.681L.33,23.733,0,.595A.592.592,0,0,1,.595,0M14.676,21.882h4.5c3.834,0,6.412-1.653,6.412-5.884,0-4.1-2.512-5.95-6.677-5.95h-4.1Z" fill="#222423"/>
    <path id="Path_106" data-name="Path 106" d="M222.264.595A.592.592,0,0,1,222.859,0h13.685a.592.592,0,0,1,.595.595l-.33,22.278.33,22.807a.592.592,0,0,1-.595.595H222.859a.592.592,0,0,1-.595-.595L222.4,26.84H207.588l.132,18.841a.592.592,0,0,1-.595.595H193.441a.593.593,0,0,1-.6-.595l.331-22.807L192.846.595a.593.593,0,0,1,.6-.595h13.684a.592.592,0,0,1,.595.595l-.132,16H222.4Z" transform="translate(-148.884)" fill="#222423"/>
    <path id="Path_107" data-name="Path 107" d="M.113,250.243A.112.112,0,0,1,0,250.13l.05-4.145-.05-4.4a.112.112,0,0,1,.113-.113h3.4c2.583,0,4.99,1.165,4.99,4.509,0,3.231-2.32,4.258-4.965,4.258Zm2.658-4.308.038,2.355h.827c1.279,0,2.006-.639,2.006-2.33,0-1.8-.84-2.542-2.056-2.542H2.808Z" transform="translate(0 -186.428)" fill="#222423"/>
    <path id="Path_108" data-name="Path 108" d="M83.081,248.4v1.728a.112.112,0,0,1-.113.113h-6.62a.113.113,0,0,1-.113-.113l.063-4.12-.063-4.421a.112.112,0,0,1,.113-.113h6.52a.112.112,0,0,1,.113.113V243.3a.112.112,0,0,1-.113.113H79.018l-.025,1.278h3.448a.112.112,0,0,1,.113.113v1.716a.112.112,0,0,1-.113.113H78.993l.025,1.653h3.949a.112.112,0,0,1,.113.113" transform="translate(-58.856 -186.428)" fill="#222423"/>
    <path id="Path_109" data-name="Path 109" d="M144.544,246.761a.1.1,0,0,1,.113-.125h2.558a.132.132,0,0,1,.125.1c.163.727.689,1.027,1.529,1.027.778,0,1.216-.188,1.216-.651,0-1.378-5.379-.138-5.379-3.77,0-1.7,1.291-2.856,3.811-2.856,2.119,0,3.711.739,4.05,2.68.025.075-.025.125-.1.125H149.9a.11.11,0,0,1-.113-.1c-.088-.463-.514-.726-1.254-.726-.6,0-1.053.163-1.053.6,0,1.29,5.429.138,5.429,3.657,0,1.916-1.492,3.006-4.075,3.006-2.495,0-3.974-1.077-4.288-2.968" transform="translate(-111.592 -185.664)" fill="#222423"/>
    <path id="Path_110" data-name="Path 110" d="M223.173,250.129a.112.112,0,0,1-.113.113h-2.545a.112.112,0,0,1-.113-.113l.05-4.183-.05-4.358a.112.112,0,0,1,.113-.113h2.545a.112.112,0,0,1,.113.113l-.05,4.358Z" transform="translate(-170.158 -186.427)" fill="#222423"/>
    <path id="Path_111" data-name="Path 111" d="M271.721,245.095a4.414,4.414,0,0,1,4.664-4.609c2.457,0,3.949,1.14,4.438,2.993a.086.086,0,0,1-.088.125H278.09a.112.112,0,0,1-.125-.088,1.434,1.434,0,0,0-1.517-1c-1.291,0-1.868.977-1.868,2.592s.577,2.568,1.893,2.568a1.489,1.489,0,0,0,1.617-1.227h-1.805a.113.113,0,0,1-.113-.113v-1.728a.113.113,0,0,1,.113-.113h4.6c.063,0,.113.05.113.138,0,3.394-1.743,5.072-4.526,5.072a4.465,4.465,0,0,1-4.752-4.609" transform="translate(-209.778 -185.664)" fill="#222423"/>
    <path id="Path_112" data-name="Path 112" d="M353.947,250.129a.113.113,0,0,1-.113.113H351.59a.112.112,0,0,1-.113-.113l.038-4.2-.038-4.346a.112.112,0,0,1,.113-.113H354.4a.143.143,0,0,1,.138.075l2.633,4.709-.05-.614.013-4.058a.112.112,0,0,1,.113-.113h2.232a.112.112,0,0,1,.113.113l-.038,4.346.05,4.2a.113.113,0,0,1-.113.113H356.58a.126.126,0,0,1-.125-.075l-2.558-4.659.05.726Z" transform="translate(-271.353 -186.427)" fill="#222423"/>
  </g>
</svg>
