<?xml version="1.0" encoding="utf-8"?>
<!-- Generator: Adobe Illustrator 27.7.0, SVG Export Plug-In . SVG Version: 6.00 Build 0)  -->
<svg version="1.1" id="Layer_1" xmlns="http://www.w3.org/2000/svg" xmlns:xlink="http://www.w3.org/1999/xlink" x="0px" y="0px"
	 viewBox="0 0 610.34 237.93" style="enable-background:new 0 0 610.34 237.93;" xml:space="preserve">
<style type="text/css">
	.st0{fill:#1D76BB;}
	.st1{fill:#5EBB49;}
</style>
<g>
	<g>
		<path class="st0" d="M6.21,199.22V95.98l63.08,60.71c1.72,1.72,3.46,3.55,5.22,5.5c1.76,1.94,3.62,4.14,5.56,6.58V99.92L95,109.69
			v93.39l-64.37-61.79c-1.72-1.67-3.38-3.44-4.99-5.29c-1.61-1.85-3.13-3.8-4.58-5.83v69.05H6.21z"/>
		<path class="st0" d="M178.5,169.24h-51.42c0.36,6.01,2.15,10.71,5.36,14.07c3.21,3.37,7.48,5.05,12.82,5.05
			c4.75,0,8.71-0.99,11.87-2.98c3.16-1.99,5.92-5.2,8.27-9.63l12.41,6.92c-3.62,6.47-8.09,11.28-13.43,14.45
			c-5.34,3.16-11.6,4.75-18.79,4.75c-10.31,0-18.52-3.14-24.62-9.43c-6.1-6.29-9.16-14.67-9.16-25.16c0-10.08,3.16-18.37,9.46-24.86
			c6.31-6.49,14.41-9.73,24.32-9.73c10.35,0,18.43,2.96,24.21,8.89c5.79,5.92,8.68,14.22,8.68,24.89V169.24z M163.23,159.33
			c-0.59-4.61-2.35-8.13-5.29-10.55c-2.94-2.42-6.96-3.63-12.07-3.63c-4.84,0-8.73,1.18-11.67,3.53c-2.94,2.35-5,5.9-6.17,10.65
			H163.23z"/>
		<path class="st0" d="M255.75,169.24h-51.42c0.36,6.01,2.15,10.71,5.36,14.07c3.21,3.37,7.48,5.05,12.82,5.05
			c4.75,0,8.71-0.99,11.87-2.98c3.16-1.99,5.92-5.2,8.27-9.63l12.41,6.92c-3.62,6.47-8.09,11.28-13.43,14.45
			c-5.34,3.16-11.6,4.75-18.79,4.75c-10.31,0-18.52-3.14-24.62-9.43c-6.1-6.29-9.16-14.67-9.16-25.16c0-10.08,3.16-18.37,9.46-24.86
			c6.31-6.49,14.41-9.73,24.32-9.73c10.35,0,18.43,2.96,24.21,8.89c5.79,5.92,8.68,14.22,8.68,24.89V169.24z M240.49,159.33
			c-0.59-4.61-2.35-8.13-5.29-10.55c-2.94-2.42-6.96-3.63-12.07-3.63c-4.84,0-8.73,1.18-11.67,3.53c-2.94,2.35-5,5.9-6.17,10.65
			H240.49z"/>
		<path class="st0" d="M271.76,199.22V94.08l14.72,11.41v93.73H271.76z"/>
		<path class="st0" d="M356.75,133.29h10.46c0,0,0.12,0,0.18,0c-0.59,10.28-11.04,12.83-11.04,12.83c-0.57,0-1.1,0.11-1.59,0.33
			c2.07,3.48,3.11,7.21,3.11,11.18c0,4.72-1.48,9.08-4.43,13.09c-0.49,0.75-1.48,1.87-2.98,3.37c-2.78,2.47-5.62,4.26-8.53,5.36
			c-3.62,1.41-7.36,2.12-11.24,2.12c-4.06,0-8-0.79-11.84-2.38c-0.88,0.71-1.32,1.3-1.32,1.79v0.07c0,1.1,1.59,1.9,4.76,2.38
			c2.16,0.31,4.94,0.46,8.33,0.46l5.62-0.07c8.6,0,15.43,1.7,20.5,5.09c0.79,0.49,1.85,1.39,3.17,2.71
			c1.19,1.28,2.09,2.47,2.71,3.57c1.5,2.73,2.25,5.51,2.25,8.33c0,4.36-1.7,8.51-5.09,12.43c-1.5,1.59-2.62,2.62-3.37,3.11
			c-1.59,1.15-3,2.05-4.23,2.71c-1.06,0.57-2.34,1.15-3.83,1.72c-1.32,0.48-2.91,0.97-4.76,1.45c-3.39,0.75-6.57,1.12-9.52,1.12
			h-1.92c-5.11,0-10.1-0.86-14.95-2.58c-2.03-0.79-3.81-1.65-5.36-2.58c-1.15-0.66-2.4-1.57-3.77-2.71
			c-1.59-1.54-2.51-2.53-2.78-2.98c-0.93-1.23-1.59-2.29-1.98-3.17c-1.28-2.56-1.92-5.05-1.92-7.47v-1.06
			c0-1.55,0.35-3.37,1.06-5.49c0.53-1.37,1.21-2.69,2.05-3.97c0.53-0.79,1.39-1.81,2.58-3.04l1.19-1.12
			c-1.28-1.94-1.92-4.01-1.92-6.22v-0.46c0-2.91,1.21-6.28,3.64-10.12c-1.68-1.85-2.76-3.26-3.24-4.23
			c-0.49-0.66-1.08-1.83-1.79-3.5c-0.93-2.6-1.39-5.05-1.39-7.34v-0.86c0-3.97,1.26-7.91,3.77-11.84c0.62-0.93,1.41-1.92,2.38-2.98
			c1.59-1.59,2.69-2.58,3.31-2.98c1.54-1.15,3.22-2.14,5.03-2.98c4.06-1.81,8.16-2.71,12.3-2.71h0.73c4.98,0,9.76,1.26,14.35,3.77
			c1.01-0.93,1.87-1.59,2.58-1.98C350.57,134.02,353.48,133.29,356.75,133.29z M314.16,204.05v0.2c0,1.98,1.43,3.88,4.3,5.69
			c3.88,2.25,8.64,3.37,14.28,3.37h0.73c4.98,0,9.39-1.04,13.23-3.11c0.93-0.49,1.9-1.19,2.91-2.12c1.63-1.63,2.45-3.15,2.45-4.56
			c0-1.98-1.46-3.66-4.37-5.03c-0.97-0.44-2.23-0.84-3.77-1.19c-2.6-0.48-4.87-0.73-6.81-0.73l-7.41,0.07
			c-3.35,0-6.44-0.2-9.26-0.59c-0.84,0.4-1.72,0.92-2.64,1.59C315.37,199.57,314.16,201.71,314.16,204.05z M316.34,157.62
			c0,2.91,1.39,5.51,4.17,7.8c2.95,2.25,6.3,3.37,10.05,3.37h0.26c3.31,0,6.37-0.9,9.19-2.71c2.29-1.54,3.86-3.53,4.7-5.95
			c0.27-0.88,0.4-1.72,0.4-2.51c0-2.95-1.41-5.58-4.23-7.87c-2.91-2.2-6.31-3.31-10.18-3.31c-3.75,0-7.1,1.08-10.05,3.24
			C317.77,151.98,316.34,154.63,316.34,157.62z"/>
		<path class="st0" d="M393.17,134.92v36.22c0,6.24,1.29,10.72,3.87,13.43c2.58,2.71,6.76,4.07,12.55,4.07
			c5.79,0,9.97-1.36,12.55-4.07c2.58-2.71,3.87-7.19,3.87-13.43v-36.22h14.72v31.81c0,12.3-2.46,21.23-7.39,26.79
			c-4.93,5.56-12.8,8.34-23.6,8.34c-10.99,0-18.95-2.76-23.88-8.28c-4.93-5.52-7.39-14.47-7.39-26.86v-31.81H393.17z"/>
		<path class="st0" d="M460.59,199.22v-64.3h13.84v10.51c2.94-4.43,6.4-7.66,10.38-9.7c3.98-2.03,8.82-3.05,14.52-3.05
			c4.79,0,8.87,0.76,12.24,2.27c3.37,1.52,6,3.76,7.9,6.75c1.13,1.76,1.94,3.82,2.44,6.17c0.5,2.35,0.75,6.47,0.75,12.34v39H507.8
			v-33.03c0-8.46-1.03-14.08-3.09-16.86c-2.06-2.78-5.71-4.17-10.96-4.17c-3.44,0-6.5,0.63-9.19,1.9c-2.69,1.27-4.81,3.05-6.34,5.36
			c-1.09,1.54-1.84,3.52-2.27,5.94c-0.43,2.42-0.64,6.27-0.64,11.56v29.3H460.59z"/>
		<path class="st0" d="M588.04,94.08l14.72,13.03v92.1h-14.72v-8.34c-2.62,3.71-5.69,6.47-9.19,8.27
			c-3.51,1.81-7.52,2.71-12.04,2.71c-9.09,0-16.25-3.11-21.47-9.33c-5.22-6.22-7.83-14.73-7.83-25.54c0-10.26,2.67-18.55,8.01-24.86
			c5.34-6.31,12.3-9.46,20.89-9.46c5.25,0,9.73,1.1,13.46,3.29c3.73,2.19,6.46,5.35,8.17,9.46V94.08z M588.45,166.86
			c0-6.65-1.55-11.82-4.65-15.53c-3.1-3.71-7.43-5.56-12.99-5.56c-5.56,0-9.94,1.91-13.13,5.73c-3.19,3.82-4.78,9.12-4.78,15.91
			c0,6.83,1.54,12.1,4.61,15.8c3.07,3.71,7.41,5.56,13.02,5.56c5.34,0,9.65-2,12.96-6C586.8,178.77,588.45,173.47,588.45,166.86z"/>
	</g>
	<polygon class="st1" points="521.38,108.33 541.29,108.33 478.88,54.28 452.46,77.15 426.05,54.28 363.64,108.33 383.55,108.33 
		426.05,71.52 468.55,108.33 488.46,108.33 462.42,85.77 478.88,71.52 	"/>
	<path class="st1" d="M456.87,45.01c0.86-1.42,1.89-2.7,2.99-3.95c1.61-1.82,3.46-3.36,5.44-4.73c1.89-1.31,3.93-2.42,5.87-3.67
		c1.82-1.18,3.56-2.48,5-4.12c0.55-0.63,1.03-1.31,1.54-1.97c0.58-0.99,1.16-1.98,1.74-2.97c0.08-0.26,0.15-0.52,0.23-0.79
		c-0.05-0.02-0.09-0.03-0.14-0.05c-0.8,0.84-1.55,1.73-2.4,2.51c-2.01,1.83-4.1,3.57-6.46,4.93c-2.31,1.33-4.63,2.66-6.97,3.96
		c-1.44,0.8-3.02,1.4-4.36,2.34c-1.4,0.98-2.64,2.22-3.85,3.44c-1.82,1.82-3.02,4.1-4.1,6.37c-1.03,2.19-1.73,4.55-2.13,6.96
		c-0.03,0.16-0.08,0.32-0.12,0.48c-0.07,0.01-0.13,0.02-0.2,0.03c-0.2-0.41-0.45-0.81-0.59-1.24c-0.91-2.81-1.44-5.69-1.35-8.65
		c0.07-2.26,0.4-4.49,1.12-6.65c0.3-0.92,0.69-1.81,1.03-2.71c0.14-0.23,0.28-0.47,0.43-0.7c0.74-1.22,1.49-2.44,2.23-3.66
		c1.17-1.52,2.62-2.76,4.23-3.78c1.38-0.87,2.8-1.68,4.27-2.37c1.55-0.73,3.2-1.28,4.79-1.94c2.11-0.88,4.24-1.74,6.32-2.69
		c1.34-0.61,2.68-1.27,3.9-2.1c1.31-0.89,2.6-1.88,3.66-3.04c1.24-1.36,2.25-2.94,3.31-4.45c0.32-0.46,0.47-1.03,0.78-1.72
		c0.46,0.84,0.91,1.51,1.21,2.24c0.94,2.31,2.02,4.59,2.7,6.98c1.13,3.94,1.87,7.98,1.69,12.11c-0.11,2.56-0.37,5.1-1.25,7.53
		c-0.57,1.57-1.22,3.11-1.83,4.66c-0.37,0.64-0.73,1.28-1.1,1.92c-1.2,2.05-2.72,3.85-4.54,5.35c-2.04,1.69-4.27,3.08-6.72,4.16
		c-1.73,0.76-3.48,1.46-5.26,2.05c-2.2,0.73-4.42,1.36-6.64,2.03c-1.4,0.42-2.73,0.99-3.8,2.02c-1.61,1.56-2.57,3.43-2.74,5.71
		c-0.14,1.88,0.06,3.71,0.32,5.56c0.05,0.37-0.15,0.98-0.43,1.15c-0.3,0.18-0.85,0.01-1.27-0.09c-0.14-0.03-0.27-0.29-0.33-0.46
		c-1.26-3.9-1.85-7.87-1.26-11.97c0.35-2.42,0.86-4.79,1.82-7.04c0.8-1.86,1.62-3.7,2.43-5.55
		C456.32,45.98,456.6,45.49,456.87,45.01z"/>
	<rect x="373.15" y="216.04" class="st1" width="168.13" height="10.36"/>
</g>
</svg>
