<svg xmlns="http://www.w3.org/2000/svg" width="20.458" height="20.458" viewBox="0 0 20.458 20.458">
  <path id="_5282541_fb_social_media_facebook_facebook_logo_social_network_icon" data-name="5282541_fb_social media_facebook_facebook logo_social network_icon" d="M17.959,0a2.5,2.5,0,0,1,2.5,2.5V17.959a2.5,2.5,0,0,1-2.5,2.5H13.7V12.75h2.661l.506-3.3H13.7V7.306a1.651,1.651,0,0,1,1.861-1.784h1.44V2.712a17.565,17.565,0,0,0-2.557-.223c-2.609,0-4.314,1.581-4.314,4.443V9.449h-2.9v3.3h2.9v7.708H2.5a2.5,2.5,0,0,1-2.5-2.5V2.5A2.5,2.5,0,0,1,2.5,0H17.959Z" fill="#f2f1ec" fill-rule="evenodd"/>
</svg>
