<svg xmlns="http://www.w3.org/2000/svg" width="20.458" height="20.458" viewBox="0 0 20.458 20.458">
  <path id="Path_98" data-name="Path 98" d="M12.229,2c2.779,0,3.126.01,4.216.061a7.536,7.536,0,0,1,2.484.476,4.987,4.987,0,0,1,1.813,1.179,5.02,5.02,0,0,1,1.179,1.813A7.557,7.557,0,0,1,22.4,8.013c.048,1.09.061,1.437.061,4.216s-.01,3.126-.061,4.216a7.562,7.562,0,0,1-.476,2.484,5.223,5.223,0,0,1-2.992,2.992,7.557,7.557,0,0,1-2.484.476c-1.09.048-1.437.061-4.216.061S9.1,22.448,8.013,22.4a7.562,7.562,0,0,1-2.484-.476,5.223,5.223,0,0,1-2.992-2.992,7.53,7.53,0,0,1-.476-2.484C2.013,15.355,2,15.008,2,12.229s.01-3.126.061-4.216a7.53,7.53,0,0,1,.476-2.484A4.992,4.992,0,0,1,3.716,3.716,5.009,5.009,0,0,1,5.529,2.537a7.53,7.53,0,0,1,2.484-.476C9.1,2.013,9.45,2,12.229,2Zm0,5.115a5.115,5.115,0,1,0,5.115,5.115A5.115,5.115,0,0,0,12.229,7.115Zm6.649-.256A1.279,1.279,0,1,0,17.6,8.138,1.279,1.279,0,0,0,18.878,6.859Zm-6.649,2.3A3.069,3.069,0,1,1,9.16,12.229,3.069,3.069,0,0,1,12.229,9.16Z" transform="translate(-2 -2)" fill="#f2f1ec"/>
</svg>
