<svg xmlns="http://www.w3.org/2000/svg" width="20.458" height="20.458" viewBox="0 0 20.458 20.458">
  <path id="_5282542_linkedin_network_social_network_linkedin_logo_icon" data-name="5282542_linkedin_network_social network_linkedin logo_icon" d="M17.959,0a2.5,2.5,0,0,1,2.5,2.5V17.959a2.5,2.5,0,0,1-2.5,2.5H2.5a2.5,2.5,0,0,1-2.5-2.5V2.5A2.5,2.5,0,0,1,2.5,0H17.959ZM6.412,16.913V7.894h-3v9.019Zm10.81,0V11.741c0-2.77-1.479-4.059-3.452-4.059a2.978,2.978,0,0,0-2.7,1.489V7.894h-3c.04.846,0,9.019,0,9.019h3V11.876a2.05,2.05,0,0,1,.1-.732,1.641,1.641,0,0,1,1.538-1.1c1.084,0,1.519.827,1.519,2.039v4.826ZM4.933,3.545a1.563,1.563,0,1,0-.04,3.117h.019a1.563,1.563,0,1,0,.02-3.117Z" fill="#f2f1ec" fill-rule="evenodd"/>
</svg>
