<svg id="_211929_social_youtube_icon_1_" data-name="211929_social_youtube_icon (1)" xmlns="http://www.w3.org/2000/svg" width="27.273" height="20.458" viewBox="0 0 27.273 20.458">
  <path id="Path_84" data-name="Path 84" d="M27.089,68.518a4.141,4.141,0,0,0-3.942-4.326C20.2,64.053,17.186,64,14.112,64h-.959c-3.069,0-6.084.053-9.035.192A4.15,4.15,0,0,0,.181,68.528c-.133,1.9-.192,3.793-.186,5.69s.053,3.793.181,5.7a4.155,4.155,0,0,0,3.937,4.342c3.1.144,6.281.208,9.515.2q4.859.016,9.515-.2a4.156,4.156,0,0,0,3.942-4.342c.128-1.9.186-3.8.181-5.7Q27.281,71.368,27.089,68.518ZM11.022,79.444V68.976l7.725,5.232Z" transform="translate(0.006 -64)" fill="#f2f1ec"/>
</svg>
