<svg xmlns="http://www.w3.org/2000/svg" width="112.245" height="23.86" viewBox="0 0 112.245 23.86">
  <g id="Dezeen" transform="translate(0.01 -0.2)">
    <path id="Path_48" data-name="Path 48" d="M4.215,20.139q1.3.062,2.607.07c2.831,0,4.95-.711,6.344-2.161a8.3,8.3,0,0,0,2.092-6.038,8.384,8.384,0,0,0-2.05-6.051C11.856,4.55,9.736,3.853,6.892,3.853a23.9,23.9,0,0,0-2.677.1ZM19.664,12.01a13.391,13.391,0,0,1-.934,5.243,9.9,9.9,0,0,1-2.649,3.709,11.057,11.057,0,0,1-4.155,2.217,19.09,19.09,0,0,1-5.368.711c-.948,0-2.008-.042-3.179-.112A21.546,21.546,0,0,1-.01,23.29V.772A20.175,20.175,0,0,1,3.406.3C4.605.228,5.679.2,6.613.2A18.734,18.734,0,0,1,11.94.9a10.671,10.671,0,0,1,4.127,2.133A9.621,9.621,0,0,1,18.73,6.712,13.536,13.536,0,0,1,19.664,12.01Zm3.458,2.942a10.921,10.921,0,0,1,.683-4.044,8.506,8.506,0,0,1,1.813-2.9A8.087,8.087,0,0,1,31.237,5.68a7.219,7.219,0,0,1,5.647,2.245q2.029,2.259,2.022,6.693,0,.754-.056,1.506H27.305a4.581,4.581,0,0,0,1.478,3.263,5.628,5.628,0,0,0,3.834,1.157,12.591,12.591,0,0,0,4.615-.837l.544,3.319a13,13,0,0,1-2.259.7,19.967,19.967,0,0,1-3.4.335,10.737,10.737,0,0,1-4.016-.683,7.474,7.474,0,0,1-4.448-4.783,11.754,11.754,0,0,1-.53-3.625Zm11.74-1.813a5.319,5.319,0,0,0-.237-1.576,3.834,3.834,0,0,0-.683-1.311,3.249,3.249,0,0,0-2.649-1.185,3.625,3.625,0,0,0-2.844,1.269,4.663,4.663,0,0,0-.753,1.311,7.9,7.9,0,0,0-.363,1.506h7.529ZM55.443,8.97a103.92,103.92,0,0,0-8.84,11.28h9.035v3.374H41.723v-2.51A33.332,33.332,0,0,1,43.563,18.2q2.23-3.147,4.6-6.191,1.017-1.267,2.064-2.51H42.155V6.126H55.443V8.97Zm2.984,5.982a10.921,10.921,0,0,1,.683-4.044,8.506,8.506,0,0,1,1.813-2.9A8.087,8.087,0,0,1,66.542,5.68a7.219,7.219,0,0,1,5.647,2.245q2.029,2.259,2.022,6.693,0,.754-.056,1.506H62.61a4.581,4.581,0,0,0,1.478,3.263,5.628,5.628,0,0,0,3.834,1.157,12.591,12.591,0,0,0,4.615-.837l.544,3.319a13,13,0,0,1-2.259.7,19.967,19.967,0,0,1-3.4.335,10.737,10.737,0,0,1-4.016-.683,7.474,7.474,0,0,1-4.448-4.783,11.754,11.754,0,0,1-.53-3.625Zm11.74-1.813a5.319,5.319,0,0,0-.237-1.576,3.834,3.834,0,0,0-.683-1.311A3.249,3.249,0,0,0,66.6,9.068a3.625,3.625,0,0,0-2.844,1.269A4.663,4.663,0,0,0,63,11.648a7.9,7.9,0,0,0-.363,1.506h7.529Zm7.362,1.813a10.637,10.637,0,0,1,.7-4.044,8.505,8.505,0,0,1,1.813-2.9A8.087,8.087,0,0,1,85.659,5.68a7.239,7.239,0,0,1,5.647,2.245c1.339,1.506,2.022,3.737,2.022,6.693q-.005.754-.07,1.506H81.713A4.592,4.592,0,0,0,83.2,19.386a5.6,5.6,0,0,0,3.834,1.157,12.591,12.591,0,0,0,4.6-.837l.558,3.319a13,13,0,0,1-2.259.7,19.967,19.967,0,0,1-3.4.335,10.736,10.736,0,0,1-4.016-.683,7.474,7.474,0,0,1-4.462-4.783,11.754,11.754,0,0,1-.53-3.625ZM89.27,13.14a5.315,5.315,0,0,0-.223-1.576,3.834,3.834,0,0,0-.7-1.311A3.249,3.249,0,0,0,85.7,9.068a3.625,3.625,0,0,0-2.831,1.269,4.348,4.348,0,0,0-.753,1.311,7.007,7.007,0,0,0-.376,1.506H89.27ZM97.608,6.7A27.134,27.134,0,0,1,104.8,5.75a9.589,9.589,0,0,1,3.583.586,5.577,5.577,0,0,1,3.486,4.183,14.173,14.173,0,0,1,.363,3.263v9.844h-4.044v-9.2a13.113,13.113,0,0,0-.2-2.4,4.239,4.239,0,0,0-.6-1.6,2.385,2.385,0,0,0-1.143-.906,4.937,4.937,0,0,0-1.757-.279,13,13,0,0,0-1.6.1l-1.241.167V23.625H97.608Z"/>
  </g>
</svg>
