<svg xmlns="http://www.w3.org/2000/svg" width="253.381" height="26.567" viewBox="0 0 253.381 26.567">
  <g id="Forbbes-Homes" transform="translate(-0.96 -0.88)">
    <path id="Path_46" data-name="Path 46" d="M15.689,4.609v1.46H4.7v8.022h7.95v1.46H4.7v11.52H.96V4.609ZM26.876,27.447A9.511,9.511,0,0,1,20.3,24.859a8.629,8.629,0,0,1-2.6-6.215A9.453,9.453,0,0,1,20.3,12.1a8.875,8.875,0,0,1,6.577-2.688,9.949,9.949,0,0,1,3.642.65,8.863,8.863,0,0,1,2.891,1.821,8.3,8.3,0,0,1,2.6,6.027,9.973,9.973,0,0,1-2.6,6.736A9.019,9.019,0,0,1,26.876,27.447Zm.65-1.272a3.575,3.575,0,0,0,1.879-.52,5.174,5.174,0,0,0,1.445-1.417,7.349,7.349,0,0,0,.954-2.067,9.089,9.089,0,0,0,.332-2.457,18.336,18.336,0,0,0-.318-3.541,8.86,8.86,0,0,0-1.055-2.862,5.483,5.483,0,0,0-1.893-1.922,5.42,5.42,0,0,0-2.847-.694,3.169,3.169,0,0,0-1.677.491,5.137,5.137,0,0,0-1.431,1.373,8.008,8.008,0,0,0-1.359,4.481,15.406,15.406,0,0,0,.39,3.556,9.917,9.917,0,0,0,1.171,2.891A6.136,6.136,0,0,0,25,25.452a4.581,4.581,0,0,0,2.529.723ZM43.368,9.408h.52l.463,3.541a6.249,6.249,0,0,1,1.012-1.431,7.27,7.27,0,0,1,2.905-1.85,5.449,5.449,0,0,1,4.553.578l-1.084,2.891a3.31,3.31,0,0,0-1.474-.94,3.716,3.716,0,0,0-.795-.173q-.4-.031-.809-.029a4.351,4.351,0,0,0-2.443.737,4.788,4.788,0,0,0-1.041.925,7.425,7.425,0,0,0-.824,1.33V27.071h-3.44V10.347l2.457-.94ZM55.9,1.848,58.343.88h1.012V12.993a8.3,8.3,0,0,1,4.278-3.31,5.455,5.455,0,0,1,1.677-.289,6.331,6.331,0,0,1,4.958,2.284,8.557,8.557,0,0,1,1.951,5.435A10.725,10.725,0,0,1,69.4,24.426a9.829,9.829,0,0,1-3.079,2.211,8.959,8.959,0,0,1-3.758.809,12.9,12.9,0,0,1-3.642-.506A9.063,9.063,0,0,1,55.9,25.394V1.848Zm3.469,22.4.694.622a4.638,4.638,0,0,0,3.223,1.156,4.192,4.192,0,0,0,2.183-.578,5.151,5.151,0,0,0,1.691-1.619,8.342,8.342,0,0,0,1.084-2.486,11.852,11.852,0,0,0,.376-3.122,7.2,7.2,0,0,0-1.474-4.38,5.236,5.236,0,0,0-1.619-1.315,4.192,4.192,0,0,0-3.18-.318,6.071,6.071,0,0,0-2.211,1.127,4.149,4.149,0,0,0-.781.824V24.238Zm17.764-22.4L79.561.88h1.012V12.993a8.3,8.3,0,0,1,4.278-3.31,5.528,5.528,0,0,1,1.677-.289,6.331,6.331,0,0,1,4.958,2.284,7.563,7.563,0,0,1,1.445,2.457,8.7,8.7,0,0,1,.506,2.978,10.725,10.725,0,0,1-2.8,7.314,9.829,9.829,0,0,1-3.079,2.211,8.911,8.911,0,0,1-3.758.809,12.794,12.794,0,0,1-3.628-.506,9.063,9.063,0,0,1-3.035-1.547V1.848Zm3.455,22.4.694.622A5.29,5.29,0,0,0,83.2,25.886a5.2,5.2,0,0,0,1.3.145,4.192,4.192,0,0,0,2.2-.578,5.252,5.252,0,0,0,1.677-1.619,7.666,7.666,0,0,0,1.084-2.486,11.838,11.838,0,0,0,.39-3.122,7.2,7.2,0,0,0-1.489-4.38,5.182,5.182,0,0,0-1.6-1.315,4.192,4.192,0,0,0-3.18-.318,6.071,6.071,0,0,0-2.211,1.127,4.148,4.148,0,0,0-.781.824V24.238Zm25.078,3.194a8.354,8.354,0,0,1-6.013-2.457,8.456,8.456,0,0,1-2.486-5.926,11.87,11.87,0,0,1,.607-3.859,8.889,8.889,0,0,1,1.734-3.05,8.214,8.214,0,0,1,11.737-.535,7.242,7.242,0,0,1,2.168,5.088H100.491a11.611,11.611,0,0,0,.434,3.238,8.237,8.237,0,0,0,1.272,2.573,5.838,5.838,0,0,0,1.937,1.691,5.034,5.034,0,0,0,2.457.607,6.335,6.335,0,0,0,2.139-.361,7.588,7.588,0,0,0,3.31-2.313,4.862,4.862,0,0,0,.824-1.576l1.012.434a8.428,8.428,0,0,1-1.214,2.515,9.8,9.8,0,0,1-4.351,3.426,7.227,7.227,0,0,1-2.645.506Zm3.426-12.141a4.77,4.77,0,0,0-1.3-3.281,4.524,4.524,0,0,0-3.18-1.33,3.4,3.4,0,0,0-1.489.347,4.026,4.026,0,0,0-1.258.968,5.565,5.565,0,0,0-1.359,3.3h8.586Zm14.9,10.942a3.8,3.8,0,0,0,2.313-.781,2.536,2.536,0,0,0,.665-.824,2.128,2.128,0,0,0,.246-.954,2.418,2.418,0,0,0-.4-1.388,4.148,4.148,0,0,0-1.041-1.07,11.886,11.886,0,0,0-1.489-.853l-1.691-.809q-.867-.412-1.691-.867a7.227,7.227,0,0,1-1.489-1.1,4.918,4.918,0,0,1-1.041-1.445,4.365,4.365,0,0,1-.4-1.922,4.311,4.311,0,0,1,.434-1.922,4.682,4.682,0,0,1,1.229-1.532,6.008,6.008,0,0,1,1.879-1.012,7.344,7.344,0,0,1,2.37-.361,9.305,9.305,0,0,1,1.6.116,5.435,5.435,0,0,1,2.891,1.431,12.4,12.4,0,0,1,1.518,1.648l-1.272,1.142a7.357,7.357,0,0,0-2.2-2.4,4.654,4.654,0,0,0-4.972-.116,2.3,2.3,0,0,0-.679.723,1.83,1.83,0,0,0-.246.911,2.211,2.211,0,0,0,.434,1.359,4.72,4.72,0,0,0,1.142,1.041,12.939,12.939,0,0,0,1.619.853l1.85.795c.622.275,1.243.564,1.836.867a9.068,9.068,0,0,1,1.619,1.1,5.052,5.052,0,0,1,1.156,1.445,3.88,3.88,0,0,1,.434,1.879,5.179,5.179,0,0,1-.419,2.067,4.574,4.574,0,0,1-1.229,1.662,6.178,6.178,0,0,1-2.052,1.113,10.739,10.739,0,0,1-4.481.289,6.548,6.548,0,0,1-3.252-1.445,8.875,8.875,0,0,1-1.59-1.648l1.4-1.272a14.709,14.709,0,0,0,1.214,1.5,5.751,5.751,0,0,0,1.171,1.012,4.38,4.38,0,0,0,2.616.766Zm22.418-9.959V27.071h-3.773V4.609H146.4V14.843h11.3V4.609h3.758V27.071H157.7V16.288Zm29.125,11.159a9.511,9.511,0,0,1-6.562-2.587,8.629,8.629,0,0,1-2.6-6.215,9.453,9.453,0,0,1,2.6-6.548,8.875,8.875,0,0,1,6.562-2.688,9.971,9.971,0,0,1,3.657.65,9.018,9.018,0,0,1,2.891,1.821,8.3,8.3,0,0,1,2.587,6.027,9.973,9.973,0,0,1-2.6,6.736,9.019,9.019,0,0,1-6.533,2.8Zm.665-1.272a3.489,3.489,0,0,0,1.865-.52,4.988,4.988,0,0,0,1.445-1.417,6.968,6.968,0,0,0,.954-2.067,8.556,8.556,0,0,0,.347-2.457,18.306,18.306,0,0,0-.332-3.541,8.86,8.86,0,0,0-1.041-2.862,5.647,5.647,0,0,0-1.908-1.922,5.42,5.42,0,0,0-2.833-.694,3.133,3.133,0,0,0-1.677.491,5.183,5.183,0,0,0-1.445,1.373,8.008,8.008,0,0,0-1.359,4.481,15.388,15.388,0,0,0,.4,3.556,9.523,9.523,0,0,0,1.156,2.891,6.293,6.293,0,0,0,1.879,1.966A4.629,4.629,0,0,0,176.2,26.175ZM192.058,9.408h.983v3.585A12.922,12.922,0,0,1,198,9.7a4.741,4.741,0,0,1,3.223-.014,5.435,5.435,0,0,1,2.6,1.908,3.556,3.556,0,0,1,.65,1.474,5.918,5.918,0,0,1,1.171-1.445A8.715,8.715,0,0,1,209.258,9.7a6.964,6.964,0,0,1,2.009-.289,4.036,4.036,0,0,1,1.836.434,4.871,4.871,0,0,1,1.5,1.156,5.941,5.941,0,0,1,1.388,3.83V27.071h-3.44V15.32a3.888,3.888,0,0,0-.925-2.529,3.217,3.217,0,0,0-.983-.781,2.6,2.6,0,0,0-1.2-.289,6.938,6.938,0,0,0-4.047,1.518,4.091,4.091,0,0,0-.867.954V27.071h-3.426V15.32a3.758,3.758,0,0,0-1.937-3.31,2.715,2.715,0,0,0-1.2-.289,5.265,5.265,0,0,0-1.373.2,7.877,7.877,0,0,0-2.6,1.33,5.356,5.356,0,0,0-.954.94V27.071h-3.469V10.376l2.486-.968Zm37.335,18.039a8.354,8.354,0,0,1-6-2.457,8.456,8.456,0,0,1-2.5-5.926,11.87,11.87,0,0,1,.622-3.859,8.889,8.889,0,0,1,1.734-3.05,8.214,8.214,0,0,1,11.737-.535,7.241,7.241,0,0,1,2.168,5.088H224.218a11.1,11.1,0,0,0,.448,3.238,7.936,7.936,0,0,0,1.272,2.573,5.936,5.936,0,0,0,1.922,1.691,5.074,5.074,0,0,0,2.457.607,6.358,6.358,0,0,0,2.154-.361,7.588,7.588,0,0,0,3.3-2.313,4.643,4.643,0,0,0,.838-1.576l1,.434a8.055,8.055,0,0,1-1.2,2.515,9.8,9.8,0,0,1-4.351,3.426,7.227,7.227,0,0,1-2.645.506Zm3.426-12.141a4.77,4.77,0,0,0-1.3-3.281,4.524,4.524,0,0,0-3.165-1.33,3.357,3.357,0,0,0-1.489.347,4.08,4.08,0,0,0-1.272.968,5.565,5.565,0,0,0-1.359,3.3h8.586Zm14.917,10.942a3.8,3.8,0,0,0,2.313-.781,2.741,2.741,0,0,0,.665-.824,2.428,2.428,0,0,0-.159-2.342,4.149,4.149,0,0,0-1.055-1.07,11.66,11.66,0,0,0-1.474-.853l-1.706-.809c-.578-.275-1.127-.564-1.691-.867a7.228,7.228,0,0,1-1.474-1.1,4.365,4.365,0,0,1-1.445-3.368,4.311,4.311,0,0,1,.434-1.922,4.5,4.5,0,0,1,1.229-1.532,5.852,5.852,0,0,1,1.879-1.012,7.282,7.282,0,0,1,2.37-.361,9.134,9.134,0,0,1,1.59.116,5.435,5.435,0,0,1,2.905,1.431,13.447,13.447,0,0,1,1.518,1.648l-1.272,1.142a7.357,7.357,0,0,0-2.2-2.4,4.654,4.654,0,0,0-4.987-.116,2.248,2.248,0,0,0-.665.723,1.692,1.692,0,0,0-.246.911,2.211,2.211,0,0,0,.434,1.359,4.921,4.921,0,0,0,1.127,1.041,12.938,12.938,0,0,0,1.619.853l1.85.795c.636.275,1.243.564,1.85.867a9.623,9.623,0,0,1,1.619,1.1,5,5,0,0,1,1.142,1.445,3.88,3.88,0,0,1,.434,1.879,5.432,5.432,0,0,1-.4,2.067,4.745,4.745,0,0,1-1.229,1.662,6.254,6.254,0,0,1-2.067,1.113,10.739,10.739,0,0,1-4.481.289,6.548,6.548,0,0,1-3.238-1.445,8.875,8.875,0,0,1-1.59-1.648l1.4-1.272a14.749,14.749,0,0,0,1.2,1.5,6.224,6.224,0,0,0,1.185,1.012,4.38,4.38,0,0,0,2.6.766Z" transform="translate(0)"/>
  </g>
</svg>
