<svg xmlns="http://www.w3.org/2000/svg" width="316.911" height="21.63" viewBox="0 0 316.911 21.63">
  <g id="Harppar-Bazar" transform="translate(-0.68)">
    <path id="Path_47" data-name="Path 47" d="M.68,21.63H5.294V12.605H18.909V21.63h4.614V0H18.909V8.856H5.294V0H.68Zm30.342,0L33.5,16.439H45.381l2.475,5.191H53L41.824,0H37.042L25.975,21.63Zm4.206-8.8,4.206-8.82,4.218,8.82H35.239Zm20.248,8.8h4.614V13.122h5.6l6.573,8.508H77.91l-7.174-8.916c4.29-.192,6.849-2.62,6.849-6.164C77.585,2.7,74.774,0,69.691,0H55.475ZM60.089,9.373V3.749h8.628c3,0,4.266.841,4.266,2.824,0,1.959-1.19,2.8-4.074,2.8ZM80.854,21.63h4.614V13.555h9.974c3.641,0,7.246-2.163,7.246-6.777C102.688,3.2,100.525,0,95.442,0H80.854ZM85.468,9.805V3.749h8.339c3,0,4.266.889,4.266,3.028S96.884,9.805,94,9.805H85.468ZM105.716,21.63h4.614V13.555H120.3c3.641,0,7.246-2.163,7.246-6.777C127.55,3.2,125.387,0,120.3,0H105.728V21.63ZM110.33,9.805V3.749h8.327c3,0,4.278.889,4.278,3.028s-1.19,3.028-4.074,3.028ZM134.039,21.63l2.475-5.191H148.4l2.475,5.191H156L144.854,0h-4.795L128.992,21.63Zm4.206-8.8,4.206-8.82,4.206,8.82Zm20.236,8.8h4.626V13.122h5.588l6.585,8.508h5.648l-7.186-8.916c4.3-.192,6.873-2.62,6.873-6.164C180.615,2.7,177.779,0,172.708,0H158.492V21.63Zm4.626-12.257V3.749h8.616c3,0,4.278.841,4.278,2.824,0,1.959-1.19,2.8-4.074,2.8ZM190.925,21.63h14.72c4.807,0,7.438-2.187,7.438-5.648a5.154,5.154,0,0,0-4.987-5.455,4.66,4.66,0,0,0,4.182-4.843c0-3.461-2.824-5.684-7.967-5.684H190.937V21.63Zm4.326-3.665V12.437h8.772c2.716,0,4.3,1.057,4.3,2.884,0,1.67-1.2,2.644-3.2,2.644h-9.866Zm0-9.084V3.6h8.544c2.427,0,3.725.889,3.725,2.74,0,1.646-1.274,2.535-3.6,2.535h-8.652ZM219.428,21.63l2.475-5.191h11.9l2.475,5.191h5.119L230.231,0h-4.783L214.369,21.63h5.047Zm4.206-8.8,4.206-8.82,4.218,8.82h-8.412Zm19.383,8.8h21.053V17.881l-15.345.024L263.985,4.014V0H243.593V3.749h14.768L243.016,17.592Zm27.7,0,2.475-5.191h11.872l2.487,5.191h5.131L281.517,0h-4.783L265.655,21.63H270.7Zm4.206-8.8,4.206-8.82,4.206,8.82Zm20.236,8.8h4.614V13.122h5.6l6.573,8.508h5.648l-7.174-8.916c4.3-.192,6.861-2.62,6.861-6.164C317.278,2.7,314.454,0,309.383,0H295.156V21.63ZM299.77,9.373V3.749H308.4c3,0,4.266.841,4.266,2.824,0,1.959-1.178,2.8-4.062,2.8H299.77Z" transform="translate(0)"/>
  </g>
</svg>
