<svg xmlns="http://www.w3.org/2000/svg" width="689.461" height="701.074" viewBox="0 0 689.461 701.074">
  <g id="_2985394" data-name="2985394" transform="translate(-29.825 -7.897)">
    <path id="Path_49" data-name="Path 49" d="M168,235.994,619.539,113" transform="translate(94.509 71.909)" fill="none" stroke="rgba(0,0,0,0.7)" stroke-linecap="round" stroke-width="0.15" fill-rule="evenodd" opacity="0.5"/>
    <path id="Path_50" data-name="Path 50" d="M623.066,45l94.351,168.485M719.1,407.242,432.678,676.818M719.1,395.448,432.678,626.272M30,258.976,245.66,178.1M623.066,289.3,222.073,178.1M30,412.3l230.824,72.448M468.06,626.272,30,432.515M468.06,675.133,30,452.733M451.212,260.66l266.206,55.6M479.854,262.345,30,323m0,84.242L493.333,533.606m-35.382,1.685L719.1,381.969M666.872,60.164,30,289.3m230.824,48.861L30,343.218m192.073-5.055,497.03,8.424M233.867,484.745,719.1,361.751" transform="translate(0 25.339)" fill="none" stroke="rgba(0,0,0,0.7)" stroke-linecap="round" stroke-width="0.26" fill-rule="evenodd"/>
    <path id="Path_51" data-name="Path 51" d="M624.751,42,719.1,210.485m0,193.757L432.678,673.818M719.1,394.133,432.678,624.957M30,255.976,245.66,175.1M624.751,286.3,222.073,175.1M30,409.3l232.509,72.448M468.06,623.272,30,429.515m438.06,244.3L30,451.418M452.9,257.66,719.1,313.26M481.539,259.345,30,320m0,85.927L493.333,532.291m-35.382,0L719.1,378.969M668.557,57.164,30,286.3m232.509,48.861L30,340.218m192.073-5.055,497.03,8.424M233.867,481.745,719.1,358.751" transform="translate(0 23.285)" fill="none" stroke="rgba(0,0,0,0.7)" stroke-linecap="round" stroke-width="0.15" fill-rule="evenodd" opacity="0.5"/>
    <path id="Path_52" data-name="Path 52" d="M624.751,47,719.1,215.485m0,193.757L432.678,678.818M719.1,399.133,432.678,629.957M30,260.976,245.66,180.1M624.751,291.3,222.073,180.1M30,414.3l232.509,72.448M468.06,628.272,30,434.515m438.06,244.3L30,456.418M452.9,262.66,719.1,318.26M481.539,264.345,30,325m0,85.927L493.333,537.291m-35.382,0L719.1,383.969M668.557,62.164,30,291.3m232.509,48.861L30,345.218m192.073-5.055,497.03,8.424M233.867,486.745,719.1,363.751" transform="translate(0 26.709)" fill="none" stroke="rgba(0,0,0,0.7)" stroke-linecap="round" stroke-width="0.15" fill-rule="evenodd" opacity="0.5"/>
    <path id="Path_53" data-name="Path 53" d="M34,199.454V401.114l6.739,3.2V197.079Zm6.739-2.376,6.739,1.466v203.7l-6.739,2.072m205.551,18.533V128l13.479,3.959V419.243Zm0-294.848-13.479,4.212V418.619l13.479,4.229Zm67.394,100.754v199.7l10.109,2.814V227.406Zm10.109-1.348L333.9,229.04V427.5l-10.109,3.774m143.212,38.752V207.188l-15.164,1.853V466.048Z" transform="translate(2.739 82.182)" fill="none" stroke="rgba(0,0,0,0.7)" stroke-linecap="round" stroke-width="0.26" fill-rule="evenodd"/>
    <path id="Path_54" data-name="Path 54" d="M290,175l13.479,2.763V430.035L290,437.836Z" transform="translate(178.06 114.369)" fill="none" stroke="rgba(0,0,0,0.7)" stroke-linecap="round" stroke-width="0.26" fill-rule="evenodd"/>
    <path id="Path_55" data-name="Path 55" d="M396.479,60V472.788l8.424-7.464V74.17Zm-1.685,0L383,64.448V471.086l11.794,1.7Z" transform="translate(241.751 35.612)" fill="none" stroke="rgba(0,0,0,0.7)" stroke-linecap="round" stroke-width="0.51" fill-rule="evenodd"/>
    <path id="Path_56" data-name="Path 56" d="M705.624,149.873V376.148l-5.055,4.482V141.382Zm-5.055-8.492-6.739,2.527V380.63h6.739M410.775,109.841V409.02l10.109,1.938V106ZM420.885,106l10.109,5.863V405.835l-10.109,5.122ZM648.339,442.969,30,357.042" transform="translate(0 67.115)" fill="none" stroke="rgba(0,0,0,0.7)" stroke-linecap="round" stroke-width="0.26" fill-rule="evenodd"/>
    <g id="Group_25" data-name="Group 25" transform="translate(345.066 141.103)">
      <path id="Path_57" data-name="Path 57" d="M517.824,437.448,415.048,426.867V260.539M401.57,87,287,125.751m8.424-8.424V235.267m0-112.649,23.251,9.873,77.84-23.588m-77.5,23.588V238.636m8.424,3.37V138.775L398.2,117.327" transform="translate(-169.061 -87)" fill="none" stroke="rgba(0,0,0,0.7)" stroke-linecap="round" stroke-width="0.51" fill-rule="evenodd"/>
      <path id="Path_58" data-name="Path 58" d="M311,124.68l5.914,3.538L381.764,108m-65.709,20.218V229.309M353.121,111.37V236.048" transform="translate(-152.624 -72.618)" fill="none" stroke="rgba(0,0,0,0.7)" stroke-linecap="round" stroke-width="0.51" fill-rule="evenodd"/>
      <path id="Path_59" data-name="Path 59" d="M339,237.84V109l5.055,4.01V238.733" transform="translate(-133.449 -71.933)" fill="none" stroke="rgba(0,0,0,0.7)" stroke-linecap="round" stroke-linejoin="round" stroke-width="0.51" fill-rule="evenodd"/>
      <path id="Path_60" data-name="Path 60" d="M402,110V219.195l30.327,15.484V150.1Z" transform="translate(-90.303 -71.249)" fill="none" stroke="rgba(0,0,0,0.7)" stroke-linecap="round" stroke-width="0.51" fill-rule="evenodd"/>
      <path id="Path_61" data-name="Path 61" d="M432.327,144.588h-8.593L402,121m21.9,21.9v79.188m-3.37,0V145.818L402,126.055" transform="translate(-90.303 -63.715)" fill="none" stroke="rgba(0,0,0,0.7)" stroke-linecap="round" stroke-width="0.51" fill-rule="evenodd"/>
      <path id="Path_62" data-name="Path 62" d="M547.23,141.164h-2.308L528.7,126m16.848,15.164v75.818M313.036,466.339V245.624L217,255.666V439.516l24.616-9.924v-176.5m-1.028,176.184,70.764,18.533" transform="translate(-217 -60.291)" fill="none" stroke="rgba(0,0,0,0.7)" stroke-linecap="round" stroke-width="0.51" fill-rule="evenodd"/>
      <path id="Path_63" data-name="Path 63" d="M259.588,220.588,236,222.559v45.2h23.588Zm5.055.607v46.569H294.97V218.9ZM236,274.5h23.588v43.806L236,316.658Zm28.642,0v43.739l30.327,1.752V275.177ZM355.624,197v42.323l84.242,1.483V207.648Zm74.133,42.121v-33.7m-35.382-3.37v37.067m6.739-37.067v37.067m-11.794-37.067v37.067m126.364-23.588v24.734l30.327.539v-20.96Zm25.273,5.055v21.9M530.848,218.9v23.588m-5.055-25.273v23.588m-1.685-23.588v23.588" transform="translate(-203.988 -11.667)" fill="none" stroke="rgba(0,0,0,0.7)" stroke-linecap="round" stroke-width="0.51" fill-rule="evenodd"/>
    </g>
    <path id="Path_64" data-name="Path 64" d="M34,244.388V429.856L441.076,610l192.73-155.562-46.232-4.785L465.2,521.781V257.765L268.885,284.133V468.051M635.49,54V293.248" transform="translate(2.739 31.503)" fill="none" stroke="rgba(0,0,0,0.7)" stroke-linecap="round" stroke-width="1.03" fill-rule="evenodd"/>
    <path id="Path_65" data-name="Path 65" d="M152,126V283.163h13.293v142.42l23.622-5.948,72.6,19.746" transform="translate(83.551 80.812)" fill="none" stroke="rgba(0,0,0,0.7)" stroke-linecap="round" stroke-width="1.03" fill-rule="evenodd"/>
    <path id="Path_66" data-name="Path 66" d="M98.142,313.9,47.479,321.04V221.432L97.165,220l.977,93.9,148.149,45.946M34,316.036v20.993L441.733,543.491v-48.1" transform="translate(2.739 145.188)" fill="none" stroke="rgba(0,0,0,0.7)" stroke-linecap="round" stroke-width="1.03" fill-rule="evenodd"/>
    <ellipse id="Ellipse_5" data-name="Ellipse 5" cx="43.5" cy="16.5" rx="43.5" ry="16.5" transform="translate(160.102 642)" fill="none" stroke="rgba(0,0,0,0.7)" stroke-linecap="round" stroke-width="0.51"/>
    <path id="Path_67" data-name="Path 67" d="M131.806,366.424c0,4.65-9.806,8.424-21.9,8.424S88,371.091,88,366.424,97.806,358,109.9,358,131.806,361.757,131.806,366.424Z" transform="translate(39.721 239.697)" fill="none" stroke="rgba(0,0,0,0.7)" stroke-linecap="round" stroke-width="0.51" fill-rule="evenodd"/>
    <ellipse id="Ellipse_6" data-name="Ellipse 6" cx="22" cy="8.5" rx="22" ry="8.5" transform="translate(635.103 559)" fill="none" stroke="rgba(0,0,0,0.7)" stroke-linecap="round" stroke-width="0.51"/>
    <path id="Path_68" data-name="Path 68" d="M409.806,366.424c0,4.65-9.806,8.424-21.9,8.424s-21.9-3.757-21.9-8.424S375.806,358,387.9,358,409.806,361.757,409.806,366.424Z" transform="translate(230.109 239.697)" fill="none" stroke="rgba(0,0,0,0.7)" stroke-linecap="round" stroke-width="0.51" fill-rule="evenodd"/>
    <ellipse id="Ellipse_7" data-name="Ellipse 7" cx="21.5" cy="8.5" rx="21.5" ry="8.5" transform="translate(551.103 650)" fill="none" stroke="rgba(0,0,0,0.7)" stroke-linecap="round" stroke-width="0.51"/>
    <path id="Path_69" data-name="Path 69" d="M441.362,653.066l261.522-245.5V181.882L634.429,60,407.008,141.462V219.4L232.391,170.9,34,245.367M408.036,220.06v42.121m227.454,188.7V289.139" transform="translate(2.739 35.612)" fill="none" stroke="rgba(0,0,0,0.7)" stroke-linecap="round" stroke-width="1.03" fill-rule="evenodd"/>
    <path id="Path_70" data-name="Path 70" d="M290,175l122.286,25.222.708,166.85" transform="translate(178.06 114.369)" fill="none" stroke="rgba(0,0,0,0.7)" stroke-linecap="round" stroke-width="1.03" fill-rule="evenodd"/>
    <path id="Path_71" data-name="Path 71" d="M175,148v45.322l122.994,23.756V179.237Z" transform="translate(99.303 95.879)" fill="none" stroke="rgba(0,0,0,0.7)" stroke-linecap="round" stroke-width="0.51" fill-rule="evenodd"/>
    <path id="Path_72" data-name="Path 72" d="M297.994,177.273,287.885,179.8l.522,34.539m-.522-33.7L175,152m109.515,58.97V180.305L175,153.685" transform="translate(99.303 98.618)" fill="none" stroke="rgba(0,0,0,0.7)" stroke-linecap="round" stroke-width="0.51" fill-rule="evenodd"/>
    <path id="Path_73" data-name="Path 73" d="M270.818,176.533h-3.37v30.327m-21.9-35.382v32.012m-5.055-33.7v32.012m-1.685-32.012v32.012M203.424,161.37v33.7m-6.739,0V159.685M195,158v35.382" transform="translate(113 102.727)" fill="none" stroke="rgba(0,0,0,0.7)" stroke-linecap="round" stroke-width="0.51" fill-rule="evenodd"/>
    <path id="Path_74" data-name="Path 74" d="M206.788,219,72,222.37" transform="translate(28.764 144.503)" fill="none" stroke="rgba(0,0,0,0.7)" stroke-linecap="round" stroke-width="1.03" fill-rule="evenodd"/>
    <path id="Path_75" data-name="Path 75" d="M184.418,153v72.448M130.5,173.218v60.655m-33.7-48.861v53.915M53,200.176v45.491m0-45.491,6.739.893V242.3m0-42.121,37.067-11.794m33.7-15.164,8.424,1.045v57.925m0-58.97,45.491-15.164m-43.806,74.133V175.695l42.121-14.271m-16.848,6.739V230.5" transform="translate(15.751 99.303)" fill="none" stroke="rgba(0,0,0,0.7)" stroke-linecap="round" stroke-width="0.51" fill-rule="evenodd"/>
    <path id="Path_76" data-name="Path 76" d="M165.83,224.709V162.37l1.685,1.179v60.823m-30.327-53.578,1.685.809v54.791m1.685-53.915,21.9-6.739m5.055-3.37L179.309,159M58,238.188v-40.15l35.382-10.4M76.533,192.7V236.5" transform="translate(19.176 103.412)" fill="none" stroke="rgba(0,0,0,0.7)" stroke-linecap="round" stroke-width="0.51" fill-rule="evenodd"/>
    <path id="Path_77" data-name="Path 77" d="M78.191,224.176V180.37l1.685.708V223.94M58.04,185.424l1.567.573v39.863m.051-38.751,15.164-5.055m5.055-1.685L93.354,177" transform="translate(19.203 115.739)" fill="none" stroke="rgba(0,0,0,0.7)" stroke-linecap="round" stroke-width="0.51" fill-rule="evenodd"/>
    <path id="Path_78" data-name="Path 78" d="M43.479,221.976v326.86M235.551,161.321V648.242M249.03,166.376v497.03m160.06-507.139V708.9M638.23,58.545v500.4M326.533,122.57V538.727m379.091-367.3V493.236M469.745,250.618V572.424M30,260.727,665.187,8M719.1,208.5,602.848,8" transform="translate(0 0)" fill="none" stroke="rgba(0,0,0,0.7)" stroke-linecap="round" stroke-width="0.15" fill-rule="evenodd"/>
    <path id="Path_79" data-name="Path 79" d="M538.278,85V256.854M80,322.563H201.309v77.5L80,383.033Z" transform="translate(34.242 52.733)" fill="none" stroke="rgba(0,0,0,0.7)" stroke-linecap="round" stroke-width="0.51" fill-rule="evenodd"/>
    <path id="Path_80" data-name="Path 80" d="M88.424,226v59.441L80,286.654m6.739-1.685,114.57,15.164M90.109,226v56.308l109.515,12.771M140.654,226v62.339m8.424,0V226m-3.37,0v62.339" transform="translate(34.242 149.297)" fill="none" stroke="rgba(0,0,0,0.7)" stroke-linecap="round" stroke-width="0.51" fill-rule="evenodd"/>
    <path id="Path_81" data-name="Path 81" d="M86,283.285h3.37V226" transform="translate(38.351 149.297)" fill="none" stroke="rgba(0,0,0,0.7)" stroke-linecap="round" stroke-width="0.51" fill-rule="evenodd"/>
  </g>
</svg>
