<?xml version="1.0" encoding="UTF-8"?>
<svg id="Layer_2" data-name="Layer 2" xmlns="http://www.w3.org/2000/svg" viewBox="0 0 387.86 301.65">
  <defs>
    <style>
      .cls-1 {
        fill: #fff;
      }
    </style>
  </defs>
  <g id="Layer_1-2" data-name="Layer 1">
    <g>
      <g>
        <path class="cls-1" d="M0,200.26V.01h84.1C136.45.01,165.16,22.63,165.16,67.15s-29.73,69.31-81.64,69.31h-29l.58,63.8c0,.91-.03,2.76-.03,2.76,0,0-1.83,0-2.73,0H2.61c-.82,0-2.61.01-2.61.01v-2.77ZM83.09,98.18c16.97,0,33.73-8.56,33.73-30.02s-15.31-30.02-34.89-30.02h-27.26l-.58,60.03h29Z"/>
        <path class="cls-1" d="M202.4,200.26l.31-99.33-.31-98.31V.01h52.49c.94,0,2.59-.01,2.59-.01,0,0,.02,1.82.02,2.62l-.72,72.94h76.71l-.72-72.94C332.76,1.79,332.76,0,332.76,0,332.76,0,334.54.01,335.37.01h49.88c.87,0,2.61,0,2.61,0,0,0,0,1.74,0,2.61l-.31,98.31.31,99.33v2.75h-52.49c-.8,0-2.6,0-2.6,0,0,0,0-1.82,0-2.76l.72-85.84h-76.71l.72,85.84c0,.86.03,2.75.03,2.75,0,0-1.69,0-2.64,0h-49.88c-.8,0-2.6-.01-2.6-.01,0,0,0-1.8,0-2.74Z"/>
      </g>
      <g>
        <path class="cls-1" d="M.88,300.55c-.28,0-.5-.22-.5-.5l.12-18.11-.12-19.4c0-.27.22-.49.5-.49h14.9c11.33,0,21.89,5.11,21.89,19.8s-10.17,18.7-21.78,18.7H.88ZM12.54,281.63l.17,10.34h3.63c5.61,0,8.8-2.8,8.8-10.23,0-7.92-3.68-11.16-9.02-11.16h-3.41l-.17,11.05Z"/>
        <path class="cls-1" d="M106.64,292.47v7.59c0,.27-.22.5-.5.5h-29.04c-.27,0-.5-.22-.5-.5l.28-18.09-.28-19.41c0-.27.22-.49.5-.49h28.6c.27,0,.49.22.49.49v7.53c0,.27-.22.49-.49.49h-16.88l-.11,5.61h15.12c.28,0,.5.22.5.5v7.53c0,.27-.22.5-.5.5h-15.12l.11,7.26h17.32c.28,0,.5.22.5.49Z"/>
        <path class="cls-1" d="M144.93,288.62c-.06-.33.16-.55.49-.55h11.22c.28,0,.44.17.55.44.71,3.19,3.02,4.51,6.71,4.51,3.41,0,5.33-.82,5.33-2.86,0-6.05-23.59-.6-23.59-16.55,0-7.48,5.66-12.54,16.72-12.54,9.29,0,16.28,3.24,17.76,11.77.11.33-.11.55-.44.55h-11.27c-.28,0-.44-.17-.5-.44-.38-2.03-2.25-3.19-5.5-3.19-2.64,0-4.62.71-4.62,2.64,0,5.66,23.81.6,23.81,16.06,0,8.41-6.54,13.2-17.87,13.2s-17.43-4.73-18.81-13.03Z"/>
        <path class="cls-1" d="M232.92,300.05c0,.27-.22.5-.49.5h-11.16c-.27,0-.5-.22-.5-.5l.22-18.37-.22-19.14c0-.27.22-.49.5-.49h11.16c.27,0,.49.22.49.49l-.22,19.14.22,18.37Z"/>
        <path class="cls-1" d="M272.09,281.3c0-12.04,8.36-20.24,20.46-20.24,10.78,0,17.32,5,19.47,13.14.11.33-.05.55-.38.55h-11.6c-.27,0-.5-.11-.55-.38-1.04-2.92-3.13-4.4-6.65-4.4-5.66,0-8.19,4.29-8.19,11.38s2.53,11.27,8.3,11.27c3.63,0,6.49-1.81,7.09-5.39h-7.92c-.27,0-.5-.22-.5-.5v-7.59c0-.27.22-.5.5-.5h20.18c.28,0,.5.22.5.6,0,14.9-7.64,22.27-19.85,22.27s-20.84-8.47-20.84-20.24Z"/>
        <path class="cls-1" d="M362.67,300.05c0,.27-.22.5-.5.5h-9.84c-.28,0-.5-.22-.5-.5l.17-18.42-.17-19.08c0-.27.22-.49.5-.49h12.32c.28,0,.5.11.6.33l11.55,20.68-.22-2.69.05-17.82c0-.27.22-.49.5-.49h9.79c.28,0,.5.22.5.49l-.17,19.08.22,18.42c0,.27-.22.5-.5.5h-12.76c-.27,0-.44-.11-.55-.33l-11.22-20.46.22,3.19v17.1Z"/>
      </g>
      <rect class="cls-1" y="222.88" width="387.47" height="19.57"/>
    </g>
  </g>
</svg>