<svg id="Group_176" data-name="Group 176" xmlns="http://www.w3.org/2000/svg" xmlns:xlink="http://www.w3.org/1999/xlink" width="82.654" height="60" viewBox="0 0 82.654 60">
  <defs>
    <clipPath id="clip-path">
      <rect id="Rectangle_235" data-name="Rectangle 235" width="82.654" height="60" fill="#f2f1ec"/>
    </clipPath>
  </defs>
  <g id="Group_108" data-name="Group 108" clip-path="url(#clip-path)">
    <path id="Path_105" data-name="Path 105" d="M.557,0h18.45C30.895,0,37.148,4.953,37.148,14.735c0,9.163-6.5,15.231-18.326,15.231H13.807l.124,12.816a.555.555,0,0,1-.557.557H.557A.555.555,0,0,1,0,42.782L.309,22.227,0,.557A.555.555,0,0,1,.557,0M13.745,20.493h4.21c3.591,0,6.006-1.548,6.006-5.51,0-3.838-2.353-5.572-6.253-5.572H13.868Z" fill="#f2f1ec"/>
    <path id="Path_106" data-name="Path 106" d="M220.4.557A.555.555,0,0,1,220.954,0h12.816a.555.555,0,0,1,.557.557l-.309,20.865.309,21.36a.555.555,0,0,1-.557.557H220.954a.555.555,0,0,1-.557-.557l.124-17.645H206.653l.124,17.645a.555.555,0,0,1-.557.557H193.4a.555.555,0,0,1-.557-.557l.31-21.36L192.846.557A.555.555,0,0,1,193.4,0h12.816a.555.555,0,0,1,.557.557l-.124,14.983h13.868Z" transform="translate(-151.674)" fill="#f2f1ec"/>
    <path id="Path_107" data-name="Path 107" d="M.106,249.687A.105.105,0,0,1,0,249.581L.047,245.7,0,241.581a.1.1,0,0,1,.106-.105H3.287c2.419,0,4.673,1.091,4.673,4.223,0,3.026-2.172,3.988-4.65,3.988Zm2.489-4.035.035,2.205H3.4c1.2,0,1.879-.6,1.879-2.182,0-1.689-.787-2.381-1.926-2.381H2.63Z" transform="translate(0 -189.921)" fill="#f2f1ec"/>
    <path id="Path_108" data-name="Path 108" d="M82.646,247.962v1.619a.105.105,0,0,1-.106.106h-6.2a.105.105,0,0,1-.106-.106l.059-3.859-.059-4.141a.105.105,0,0,1,.106-.105h6.106a.105.105,0,0,1,.106.105v1.607a.105.105,0,0,1-.106.105h-3.6l-.023,1.2h3.229a.105.105,0,0,1,.106.106V246.2a.105.105,0,0,1-.106.106H78.818l.023,1.548h3.7a.105.105,0,0,1,.106.105" transform="translate(-59.959 -189.921)" fill="#f2f1ec"/>
    <path id="Path_109" data-name="Path 109" d="M144.544,246.363a.1.1,0,0,1,.105-.117h2.4a.124.124,0,0,1,.117.094c.153.68.646.962,1.432.962.728,0,1.139-.176,1.139-.61,0-1.29-5.037-.129-5.037-3.531,0-1.6,1.209-2.675,3.57-2.675,1.984,0,3.476.692,3.793,2.51.023.07-.023.117-.094.117h-2.407a.1.1,0,0,1-.106-.094c-.082-.434-.481-.68-1.174-.68-.564,0-.986.152-.986.563,0,1.208,5.084.129,5.084,3.425,0,1.794-1.4,2.815-3.816,2.815-2.337,0-3.722-1.009-4.015-2.78" transform="translate(-113.683 -189.143)" fill="#f2f1ec"/>
    <path id="Path_110" data-name="Path 110" d="M223,249.58a.105.105,0,0,1-.105.106h-2.384a.105.105,0,0,1-.106-.106l.047-3.917-.047-4.082a.105.105,0,0,1,.106-.106h2.384a.105.105,0,0,1,.105.106l-.047,4.082Z" transform="translate(-173.346 -189.92)" fill="#f2f1ec"/>
    <path id="Path_111" data-name="Path 111" d="M271.721,244.8a4.134,4.134,0,0,1,4.368-4.317c2.3,0,3.7,1.067,4.156,2.8a.08.08,0,0,1-.082.117h-2.477a.105.105,0,0,1-.117-.082,1.343,1.343,0,0,0-1.421-.938c-1.209,0-1.749.915-1.749,2.428s.54,2.4,1.773,2.4a1.4,1.4,0,0,0,1.515-1.149h-1.691a.105.105,0,0,1-.106-.106v-1.619a.105.105,0,0,1,.106-.106H280.3c.059,0,.106.047.106.129,0,3.179-1.632,4.751-4.239,4.751a4.181,4.181,0,0,1-4.45-4.317" transform="translate(-213.709 -189.143)" fill="#f2f1ec"/>
    <path id="Path_112" data-name="Path 112" d="M353.79,249.58a.105.105,0,0,1-.106.106h-2.1a.105.105,0,0,1-.106-.106l.035-3.929-.035-4.07a.105.105,0,0,1,.106-.106h2.63a.134.134,0,0,1,.129.07l2.466,4.41-.047-.575.012-3.8a.105.105,0,0,1,.106-.106h2.09a.105.105,0,0,1,.106.106l-.035,4.07.047,3.929a.105.105,0,0,1-.106.106h-2.724a.118.118,0,0,1-.117-.07l-2.4-4.363.047.68Z" transform="translate(-276.437 -189.92)" fill="#f2f1ec"/>
  </g>
</svg>
