<svg xmlns="http://www.w3.org/2000/svg" width="24.715" height="23.571" viewBox="0 0 24.715 23.571">
  <g id="Layer_1" data-name="Layer 1" transform="translate(-0.005)">
    <path id="Path_220" data-name="Path 220" d="M8.45,7.58.66,8.44A.737.737,0,0,0,.25,9.72C2.57,11.83,6.05,15,6.05,15s-.96,4.6-1.59,7.68a.753.753,0,0,0,.29.75.727.727,0,0,0,.8.04c2.73-1.55,6.81-3.88,6.81-3.88l6.81,3.88a.748.748,0,0,0,1.01-.27.726.726,0,0,0,.08-.52C19.63,19.61,18.68,15,18.68,15s3.48-3.16,5.8-5.27a.779.779,0,0,0,.21-.78.721.721,0,0,0-.62-.5c-3.12-.35-7.79-.87-7.79-.87L13.03.43a.737.737,0,0,0-1.34,0c-1.3,2.86-3.24,7.14-3.24,7.14Z" fill="#0d6efd"/>
  </g>
</svg>
