<svg xmlns="http://www.w3.org/2000/svg" width="153.289" height="23.86" viewBox="0 0 153.289 23.86">
  <g id="Wallpapeer_" transform="translate(-0.06 -0.86)">
    <path id="Path_45" data-name="Path 45" d="M19.954,19.9,25.075.86H20.987l-3.11,13.118H17.81L14.545.871H10.624L7.325,13.8H7.269L4.27.86H.06L5.114,19.9H9.346L12.523,6.936h.056L15.8,19.9Zm6.476-9.553a4.592,4.592,0,0,1,.666-2.2,4.585,4.585,0,0,1,1.5-1.422A6.509,6.509,0,0,1,30.64,5.97a11.225,11.225,0,0,1,2.277-.222,15.2,15.2,0,0,1,2.11.144,6.443,6.443,0,0,1,1.944.567,3.98,3.98,0,0,1,1.444,1.189,3.367,3.367,0,0,1,.555,2.011v7.176a12.935,12.935,0,0,0,.111,1.777,3.193,3.193,0,0,0,.367,1.289H35.605a5.432,5.432,0,0,1-.267-1.333,4.954,4.954,0,0,1-2.133,1.311,8.553,8.553,0,0,1-2.5.367,6.776,6.776,0,0,1-1.844-.233,4.221,4.221,0,0,1-1.488-.755,3.254,3.254,0,0,1-1-1.277,4.332,4.332,0,0,1-.367-1.833,3.984,3.984,0,0,1,.422-1.933A3.353,3.353,0,0,1,27.5,12.99a4.655,4.655,0,0,1,1.488-.666,14.757,14.757,0,0,1,1.688-.367c.578-.089,1.133-.167,1.688-.222a8.632,8.632,0,0,0,1.466-.233,2.617,2.617,0,0,0,1-.467.99.99,0,0,0,.355-.889,2.034,2.034,0,0,0-.2-.977,1.466,1.466,0,0,0-.533-.555,2.078,2.078,0,0,0-.778-.267,6.331,6.331,0,0,0-.944-.067,2.84,2.84,0,0,0-1.755.478,2.111,2.111,0,0,0-.744,1.6h-3.8Zm8.753,2.81a1.563,1.563,0,0,1-.6.333,11.852,11.852,0,0,1-1.644.333l-.9.133a7.213,7.213,0,0,0-.844.211,2.735,2.735,0,0,0-.722.355,1.762,1.762,0,0,0-.489.578,1.851,1.851,0,0,0-.189.889,1.788,1.788,0,0,0,.189.844,1.528,1.528,0,0,0,.511.555,2.11,2.11,0,0,0,.744.267,4.52,4.52,0,0,0,.878.089,3.371,3.371,0,0,0,1.733-.378,2.591,2.591,0,0,0,.911-.889,3.043,3.043,0,0,0,.355-1.055,7.3,7.3,0,0,0,.067-.855V13.156ZM42,.86V19.9h3.788V.86Zm6.876,0V19.9h3.788V.86ZM62.62,17.422a2.929,2.929,0,0,1-2.577-1.344,4.151,4.151,0,0,1-.555-1.4,7.664,7.664,0,0,1-.022-3.288A4.076,4.076,0,0,1,60.02,9.98a3.071,3.071,0,0,1,1-1,2.976,2.976,0,0,1,1.566-.389,2.866,2.866,0,0,1,2.555,1.4,4.009,4.009,0,0,1,.578,1.433,7.664,7.664,0,0,1,.011,3.255,4.139,4.139,0,0,1-.544,1.4,2.907,2.907,0,0,1-1.011.966,3,3,0,0,1-1.555.378ZM55.644,6.114V24.72h3.788V18.188h.056a4.385,4.385,0,0,0,1.777,1.533,5.2,5.2,0,0,0,2.355.522,5.609,5.609,0,0,0,4.554-2.155A6.871,6.871,0,0,0,69.3,15.822a10.475,10.475,0,0,0,0-5.476A6.865,6.865,0,0,0,68.151,7.98a5.776,5.776,0,0,0-1.944-1.622,5.965,5.965,0,0,0-2.8-.611,5.491,5.491,0,0,0-2.355.5A4.182,4.182,0,0,0,59.3,7.88h-.056V6.114h-3.6Zm16.14,4.232a4.362,4.362,0,0,1,.666-2.2,4.479,4.479,0,0,1,1.5-1.422,6.509,6.509,0,0,1,2.033-.755,11.3,11.3,0,0,1,2.277-.222,15.089,15.089,0,0,1,2.11.144,6.442,6.442,0,0,1,1.944.567,3.98,3.98,0,0,1,1.444,1.189,3.367,3.367,0,0,1,.555,2.011v7.176a12.934,12.934,0,0,0,.111,1.777,3.193,3.193,0,0,0,.367,1.289H80.97a5.431,5.431,0,0,1-.267-1.333,5.087,5.087,0,0,1-2.133,1.311,8.553,8.553,0,0,1-2.51.367,6.776,6.776,0,0,1-1.833-.233,4.221,4.221,0,0,1-1.5-.755,3.468,3.468,0,0,1-1-1.277,4.332,4.332,0,0,1-.355-1.833,3.988,3.988,0,0,1,.411-1.933A3.571,3.571,0,0,1,72.85,12.99a4.766,4.766,0,0,1,1.488-.666,14.942,14.942,0,0,1,1.7-.367c.566-.089,1.122-.167,1.677-.222a8.453,8.453,0,0,0,1.466-.233,2.674,2.674,0,0,0,1.011-.467.984.984,0,0,0,.344-.889,2.034,2.034,0,0,0-.2-.977,1.466,1.466,0,0,0-.533-.555,2.078,2.078,0,0,0-.778-.267,6.332,6.332,0,0,0-.933-.067,2.875,2.875,0,0,0-1.766.478,2.188,2.188,0,0,0-.744,1.6H71.806Zm8.742,2.81a1.563,1.563,0,0,1-.6.333,11.852,11.852,0,0,1-1.644.333,6.831,6.831,0,0,0-1.744.344,2.662,2.662,0,0,0-.711.355,1.794,1.794,0,0,0-.5.578,2,2,0,0,0-.178.889,1.789,1.789,0,0,0,.178.844,1.749,1.749,0,0,0,.511.555,2.282,2.282,0,0,0,.744.267,4.635,4.635,0,0,0,.889.089,3.326,3.326,0,0,0,1.722-.378,2.591,2.591,0,0,0,.911-.889,2.829,2.829,0,0,0,.355-1.055,7.3,7.3,0,0,0,.067-.855V13.156ZM94.21,17.422a2.929,2.929,0,0,1-2.577-1.344,4.15,4.15,0,0,1-.555-1.4,7.664,7.664,0,0,1-.022-3.288,4.077,4.077,0,0,1,.555-1.411,3.071,3.071,0,0,1,1-1,2.976,2.976,0,0,1,1.566-.389,2.866,2.866,0,0,1,2.555,1.4,4.009,4.009,0,0,1,.578,1.433,7.665,7.665,0,0,1,.011,3.255,4.139,4.139,0,0,1-.544,1.4,2.907,2.907,0,0,1-1.011.966,3,3,0,0,1-1.555.378ZM87.246,6.114V24.72h3.788V18.188h.056a4.385,4.385,0,0,0,1.777,1.533,5.2,5.2,0,0,0,2.355.522,5.609,5.609,0,0,0,4.554-2.155,6.871,6.871,0,0,0,1.122-2.266,10.475,10.475,0,0,0,0-5.476A6.865,6.865,0,0,0,99.753,7.98a5.776,5.776,0,0,0-1.944-1.622,5.965,5.965,0,0,0-2.8-.611,5.491,5.491,0,0,0-2.355.5A4.182,4.182,0,0,0,90.9,7.88h-.056V6.114h-3.6Zm25.57,5.41h-6.165a4.565,4.565,0,0,1,.178-.9A2.777,2.777,0,0,1,108.3,8.9a3.35,3.35,0,0,1,1.511-.311,2.661,2.661,0,0,1,2.066.755A4.4,4.4,0,0,1,112.816,11.524Zm-6.165,2.4H116.6a9.731,9.731,0,0,0-.267-3.066,7.509,7.509,0,0,0-1.222-2.61,6.109,6.109,0,0,0-5.21-2.5,6.776,6.776,0,0,0-6.531,4.4,8.113,8.113,0,0,0-.5,2.877,8.291,8.291,0,0,0,.489,2.932,6.1,6.1,0,0,0,3.61,3.777,8.2,8.2,0,0,0,2.932.511,7.209,7.209,0,0,0,4-1.066,6.331,6.331,0,0,0,2.455-3.543h-3.332a2.454,2.454,0,0,1-1.011,1.222,3.417,3.417,0,0,1-1.977.555,3.32,3.32,0,0,1-2.444-.822,3.815,3.815,0,0,1-.944-2.666Zm21.46-2.4h-6.154a4.566,4.566,0,0,1,.178-.9A2.777,2.777,0,0,1,123.6,8.9a3.3,3.3,0,0,1,1.5-.311,2.661,2.661,0,0,1,2.066.755,4.211,4.211,0,0,1,.944,2.177Zm-6.154,2.4H131.9a9.73,9.73,0,0,0-.267-3.066,7.509,7.509,0,0,0-1.211-2.61,6.109,6.109,0,0,0-5.221-2.5,6.776,6.776,0,0,0-6.531,4.4,8.113,8.113,0,0,0-.5,2.877,8.291,8.291,0,0,0,.5,2.932,6.1,6.1,0,0,0,3.61,3.777,8.116,8.116,0,0,0,2.932.511,7.261,7.261,0,0,0,4-1.066,6.332,6.332,0,0,0,2.444-3.543h-3.332a2.367,2.367,0,0,1-1,1.222,3.441,3.441,0,0,1-1.977.555,3.366,3.366,0,0,1-2.455-.822,3.813,3.813,0,0,1-.933-2.666Zm12.185-7.8V19.9h3.777v-6.22a7.715,7.715,0,0,1,.189-1.722,3.841,3.841,0,0,1,.633-1.4,2.933,2.933,0,0,1,1.155-.944,4,4,0,0,1,1.766-.355,6.765,6.765,0,0,1,1.355.133V5.881a2.955,2.955,0,0,0-.822-.133,4.521,4.521,0,0,0-2.644.811,4.721,4.721,0,0,0-1.755,2.11h-.067V6.125h-3.6Zm15.373-1.933V.86h-2.133V4.192L144.4,3.015l-.733,2.055,3.11,1.044-1.988,2.61,1.788,1.311,1.866-2.755,1.977,2.755,1.755-1.311-1.977-2.61,3.155-1.044-.722-2.055Z" transform="translate(0 0)"/>
  </g>
</svg>
